<?xml version="1.0" encoding="UTF-8"?>
<!DOCTYPE svg PUBLIC "-//W3C//DTD SVG 1.1//EN" "http://www.w3.org/Graphics/SVG/1.1/DTD/svg11.dtd">
<!-- Creator: CorelDRAW 2021 (64-Bit) -->
<svg xmlns="http://www.w3.org/2000/svg" xml:space="preserve" width="10.6667in" height="8in" version="1.1" style="shape-rendering:geometricPrecision; text-rendering:geometricPrecision; image-rendering:optimizeQuality; fill-rule:evenodd; clip-rule:evenodd"
viewBox="0 0 1066666 800000"
 xmlns:xlink="http://www.w3.org/1999/xlink"
 xmlns:xodm="http://www.corel.com/coreldraw/odm/2003">
 <defs>
  <style type="text/css">
   <![CDATA[
    .str0 {stroke:black;stroke-width:333;stroke-linecap:round;stroke-linejoin:round;stroke-miterlimit:2.61313}
    .str4 {stroke:black;stroke-width:8333;stroke-linecap:round;stroke-linejoin:round;stroke-miterlimit:2.61313}
    .str3 {stroke:#5827AE;stroke-width:5333;stroke-linecap:round;stroke-linejoin:round;stroke-miterlimit:2.61313}
    .str1 {stroke:white;stroke-width:5333;stroke-linecap:round;stroke-linejoin:round;stroke-miterlimit:2.61313}
    .str5 {stroke:white;stroke-width:5333;stroke-linecap:round;stroke-linejoin:round;stroke-miterlimit:2.61313;stroke-dasharray:53334.645669 16000.393701}
    .str2 {stroke:white;stroke-width:5333;stroke-linecap:round;stroke-linejoin:round;stroke-miterlimit:2.61313}
    .fil1 {fill:none}
    .fil0 {fill:black}
    .fil3 {fill:#5330AE;fill-rule:nonzero}
    .fil5 {fill:#5330AE;fill-rule:nonzero}
    .fil2 {fill:#5333AE;fill-rule:nonzero}
    .fil4 {fill:white;fill-rule:nonzero}
   ]]>
  </style>
 </defs>
 <g id="Layer_x0020_1">
  <metadata id="CorelCorpID_0Corel-Layer"/>
  <rect class="fil0 str0" x="-3287" y="-4779" width="1078816" height="810697"/>
  <path class="fil1 str1" d="M646594 350524l20785 44207m-70927 -44306l0 43235m0 -90459l78336 0 0 41668 -78336 0 0 -41668z"/>
  <g>
   <path class="fil1 str2" d="M764237 350376l0 43964m-78336 -43947l0 43717m0 -90908l78336 0 0 41668 -78336 0 0 -41668z"/>
  </g>
  <polyline class="fil1 str3" points="565499,381399 562007,381399 562007,389689 "/>
  <polyline class="fil1 str1" points="570965,392906 574457,392927 574507,384637 "/>
  <rect class="fil0 str4" x="596498" y="302923" width="78336" height="41947"/>
  <rect class="fil0 str4" x="686502" y="302923" width="78336" height="41313"/>
  <g>
   <path class="fil2" d="M686433 306374c-1472,6 -2671,-1184 -2677,-2656 -6,-1472 1184,-2671 2656,-2677l20 5333zm2646 -5343l20 5333 -2667 10 -20 -5333 2667 -10zm0 0c1472,-6 2671,1184 2677,2656 6,1472 -1184,2671 -2656,2677l-20 -5333zm11427 5290c-1472,6 -2671,-1184 -2677,-2656 -6,-1472 1184,-2671 2656,-2677l20 5333zm9105 -5368l20 5333 -9125 35 -20 -5333 9125 -35zm0 0c1472,-6 2671,1184 2677,2656 6,1472 -1184,2671 -2656,2677l-20 -5333zm11427 5290c-1472,6 -2671,-1184 -2677,-2656 -6,-1472 1184,-2671 2656,-2677l20 5333zm9105 -5368l20 5333 -9125 35 -20 -5333 9125 -35zm0 0c1472,-6 2671,1184 2677,2656 6,1472 -1184,2671 -2656,2677l-20 -5333zm11427 5289c-1472,6 -2671,-1184 -2677,-2656 -6,-1472 1184,-2671 2656,-2677l20 5333zm9105 -5368l20 5333 -9125 35 -20 -5333 9125 -35zm0 0c1472,-6 2671,1184 2677,2656 6,1472 -1184,2671 -2656,2677l-20 -5333zm11427 5289c-1472,6 -2671,-1184 -2677,-2656 -6,-1472 1184,-2671 2656,-2677l20 5333zm2667 -11l-2667 11 -20 -5333 2667 -11 2677 2656 -2656 2677zm-20 -5333c1472,-6 2671,1184 2677,2656 6,1472 -1184,2671 -2656,2677l-20 -5333zm2687 5323l-5333 20 -10 -2667 5333 -20 10 2667zm0 0c6,1472 -1184,2671 -2656,2677 -1472,6 -2671,-1184 -2677,-2656l5333 -20zm-5311 5698c-6,-1472 1184,-2671 2656,-2677 1472,-6 2671,1184 2677,2656l-5333 20zm5350 4521l-5333 20 -17 -4542 5333 -20 17 4542zm0 0c6,1472 -1184,2671 -2656,2677 -1472,6 -2671,-1184 -2677,-2656l5333 -20zm-5311 5698c-6,-1472 1184,-2671 2656,-2677 1472,-6 2671,1184 2677,2656l-5333 20zm5350 4521l-5333 20 -17 -4542 5333 -20 17 4542zm0 0c6,1472 -1184,2671 -2656,2677 -1472,6 -2671,-1184 -2677,-2656l5333 -20zm-5311 5698c-6,-1472 1184,-2671 2656,-2677 1472,-6 2671,1184 2677,2656l-5333 20zm5350 4521l-5333 20 -17 -4542 5333 -20 17 4542zm0 0c6,1472 -1184,2671 -2656,2677 -1472,6 -2671,-1184 -2677,-2656l5333 -20zm-5311 5698c-6,-1472 1184,-2671 2656,-2677 1472,-6 2671,1184 2677,2656l-5333 20zm10 2667l-10 -2667 5333 -20 10 2667 -2656 2677 -2677 -2656zm5333 -20c6,1472 -1184,2671 -2656,2677 -1472,6 -2671,-1184 -2677,-2656l5333 -20zm-5323 2687l-20 -5333 2667 -10 20 5333 -2667 10zm0 0c-1472,6 -2671,-1184 -2677,-2656 -6,-1472 1184,-2671 2656,-2677l20 5333zm-11427 -5290c1472,-6 2671,1184 2677,2656 6,1472 -1184,2671 -2656,2677l-20 -5333zm-9105 5368l-20 -5333 9125 -35 20 5333 -9125 35zm0 0c-1472,6 -2671,-1184 -2677,-2656 -6,-1472 1184,-2671 2656,-2677l20 5333zm-11427 -5290c1472,-6 2671,1184 2677,2656 6,1472 -1184,2671 -2656,2677l-20 -5333zm-9105 5368l-20 -5333 9125 -35 20 5333 -9125 35zm0 0c-1472,6 -2671,-1184 -2677,-2656 -6,-1472 1184,-2671 2656,-2677l20 5333zm-11427 -5289c1472,-6 2671,1184 2677,2656 6,1472 -1184,2671 -2656,2677l-20 -5333zm-9105 5368l-20 -5333 9125 -35 20 5333 -9125 35zm0 0c-1472,6 -2671,-1184 -2677,-2656 -6,-1472 1184,-2671 2656,-2677l20 5333zm-11427 -5289c1472,-6 2671,1184 2677,2656 6,1472 -1184,2671 -2656,2677l-20 -5333zm-2667 11l2667 -11 20 5333 -2667 11 -2677 -2656 2656 -2677zm20 5333c-1472,6 -2671,-1184 -2677,-2656 -6,-1472 1184,-2671 2656,-2677l20 5333zm-2687 -5323l5333 -20 10 2667 -5333 20 -10 -2667zm0 0c-6,-1472 1184,-2671 2656,-2677 1472,-6 2671,1184 2677,2656l-5333 20zm5311 -5698c6,1472 -1184,2671 -2656,2677 -1472,6 -2671,-1184 -2677,-2656l5333 -20zm-5350 -4521l5333 -20 17 4542 -5333 20 -17 -4542zm0 0c-6,-1472 1184,-2671 2656,-2677 1472,-6 2671,1184 2677,2656l-5333 20zm5311 -5698c6,1472 -1184,2671 -2656,2677 -1472,6 -2671,-1184 -2677,-2656l5333 -20zm-5350 -4521l5333 -20 17 4542 -5333 20 -17 -4542zm0 0c-6,-1472 1184,-2671 2656,-2677 1472,-6 2671,1184 2677,2656l-5333 20zm5311 -5698c6,1472 -1184,2671 -2656,2677 -1472,6 -2671,-1184 -2677,-2656l5333 -20zm-5350 -4521l5333 -20 17 4542 -5333 20 -17 -4542zm0 0c-6,-1472 1184,-2671 2656,-2677 1472,-6 2671,1184 2677,2656l-5333 20zm5311 -5698c6,1472 -1184,2671 -2656,2677 -1472,6 -2671,-1184 -2677,-2656l5333 -20zm-10 -2667l10 2667 -5333 20 -10 -2667 2656 -2677 2677 2656zm-5333 20c-6,-1472 1184,-2671 2656,-2677 1472,-6 2671,1184 2677,2656l-5333 20z"/>
  </g>
  <g>
   <path class="fil2" d="M595902 305777c-1473,0 -2667,-1194 -2667,-2667 0,-1473 1194,-2667 2667,-2667l0 5334zm2667 -5334l0 5334 -2667 0 0 -5334 2667 0zm0 0c1473,0 2667,1194 2667,2667 0,1473 -1194,2667 -2667,2667l0 -5334zm11407 5334c-1473,0 -2667,-1194 -2667,-2667 0,-1473 1194,-2667 2667,-2667l0 5334zm9125 -5334l0 5334 -9125 0 0 -5334 9125 0zm0 0c1473,0 2667,1194 2667,2667 0,1473 -1194,2667 -2667,2667l0 -5334zm11407 5334c-1473,0 -2667,-1194 -2667,-2667 0,-1473 1194,-2667 2667,-2667l0 5334zm9125 -5334l0 5334 -9125 0 0 -5334 9125 0zm0 0c1473,0 2667,1194 2667,2667 0,1473 -1194,2667 -2667,2667l0 -5334zm11407 5334c-1473,0 -2667,-1194 -2667,-2667 0,-1473 1194,-2667 2667,-2667l0 5334zm9125 -5334l0 5334 -9125 0 0 -5334 9125 0zm0 0c1473,0 2667,1194 2667,2667 0,1473 -1194,2667 -2667,2667l0 -5334zm11407 5334c-1473,0 -2667,-1194 -2667,-2667 0,-1473 1194,-2667 2667,-2667l0 5334zm2667 0l-2667 0 0 -5334 2667 0 2667 2667 -2667 2667zm0 -5334c1473,0 2667,1194 2667,2667 0,1473 -1194,2667 -2667,2667l0 -5334zm2667 5334l-5334 0 0 -2667 5334 0 0 2667zm0 0c0,1473 -1194,2667 -2667,2667 -1473,0 -2667,-1194 -2667,-2667l5334 0zm-5334 5677c0,-1473 1194,-2667 2667,-2667 1473,0 2667,1194 2667,2667l-5334 0zm5334 4542l-5334 0 0 -4542 5334 0 0 4542zm0 0c0,1473 -1194,2667 -2667,2667 -1473,0 -2667,-1194 -2667,-2667l5334 0zm-5334 5677c0,-1473 1194,-2667 2667,-2667 1473,0 2667,1194 2667,2667l-5334 0zm5334 4542l-5334 0 0 -4542 5334 0 0 4542zm0 0c0,1473 -1194,2667 -2667,2667 -1473,0 -2667,-1194 -2667,-2667l5334 0zm-5334 5677c0,-1473 1194,-2667 2667,-2667 1473,0 2667,1194 2667,2667l-5334 0zm5334 4542l-5334 0 0 -4542 5334 0 0 4542zm0 0c0,1473 -1194,2667 -2667,2667 -1473,0 -2667,-1194 -2667,-2667l5334 0zm-5334 5677c0,-1473 1194,-2667 2667,-2667 1473,0 2667,1194 2667,2667l-5334 0zm0 2667l0 -2667 5334 0 0 2667 -2667 2667 -2667 -2667zm5334 0c0,1473 -1194,2667 -2667,2667 -1473,0 -2667,-1194 -2667,-2667l5334 0zm-5333 2667l0 -5334 2667 0 0 5334 -2667 0zm0 0c-1473,0 -2667,-1194 -2667,-2667 0,-1473 1194,-2667 2667,-2667l0 5334zm-11407 -5334c1473,0 2667,1194 2667,2667 0,1473 -1194,2667 -2667,2667l0 -5334zm-9125 5334l0 -5334 9125 0 0 5334 -9125 0zm0 0c-1473,0 -2667,-1194 -2667,-2667 0,-1473 1194,-2667 2667,-2667l0 5334zm-11407 -5334c1473,0 2667,1194 2667,2667 0,1473 -1194,2667 -2667,2667l0 -5334zm-9125 5334l0 -5334 9125 0 0 5334 -9125 0zm0 0c-1473,0 -2667,-1194 -2667,-2667 0,-1473 1194,-2667 2667,-2667l0 5334zm-11407 -5334c1473,0 2667,1194 2667,2667 0,1473 -1194,2667 -2667,2667l0 -5334zm-9125 5334l0 -5334 9125 0 0 5334 -9125 0zm0 0c-1473,0 -2667,-1194 -2667,-2667 0,-1473 1194,-2667 2667,-2667l0 5334zm-11407 -5334c1473,0 2667,1194 2667,2667 0,1473 -1194,2667 -2667,2667l0 -5334zm-2667 0l2667 0 0 5334 -2667 0 -2667 -2667 2667 -2667zm0 5334c-1473,0 -2667,-1194 -2667,-2667 0,-1473 1194,-2667 2667,-2667l0 5334zm-2667 -5334l5334 0 0 2667 -5334 0 0 -2667zm0 0c0,-1473 1194,-2667 2667,-2667 1473,0 2667,1194 2667,2667l-5334 0zm5334 -5677c0,1473 -1194,2667 -2667,2667 -1473,0 -2667,-1194 -2667,-2667l5334 0zm-5334 -4542l5334 0 0 4542 -5334 0 0 -4542zm0 0c0,-1473 1194,-2667 2667,-2667 1473,0 2667,1194 2667,2667l-5334 0zm5334 -5677c0,1473 -1194,2667 -2667,2667 -1473,0 -2667,-1194 -2667,-2667l5334 0zm-5334 -4542l5334 0 0 4542 -5334 0 0 -4542zm0 0c0,-1473 1194,-2667 2667,-2667 1473,0 2667,1194 2667,2667l-5334 0zm5334 -5677c0,1473 -1194,2667 -2667,2667 -1473,0 -2667,-1194 -2667,-2667l5334 0zm-5334 -4542l5334 0 0 4542 -5334 0 0 -4542zm0 0c0,-1473 1194,-2667 2667,-2667 1473,0 2667,1194 2667,2667l-5334 0zm5334 -5677c0,1473 -1194,2667 -2667,2667 -1473,0 -2667,-1194 -2667,-2667l5334 0zm0 -2667l0 2667 -5334 0 0 -2667 2667 -2667 2667 2667zm-5334 0c0,-1473 1194,-2667 2667,-2667 1473,0 2667,1194 2667,2667l-5334 0z"/>
  </g>
  <path class="fil3" d="M240576 462775l0 -27648 7744 0c3217,0 5455,265 6706,795 2672,1111 4012,3070 4012,5874 0,1928 -463,3533 -1391,4821 -928,1288 -2474,2488 -4645,3593l9569 12565 -5160 0 -8752 -11483 -3843 0 0 11483 -4240 0zm4240 -14663l2238 0c2289,0 4093,-508 5433,-1517 1332,-1016 2002,-2378 2002,-4100 0,-1605 -501,-2709 -1509,-3298 -1001,-596 -2856,-891 -5558,-891l-2606 0 0 9805z"/>
  <path id="_1" class="fil4" d="M288216 461847c-2944,972 -5646,1457 -8105,1457 -4019,0 -7118,-1038 -9275,-3106 -2164,-2069 -3246,-5028 -3246,-8878 0,-3637 1038,-6625 3114,-8973 2083,-2341 4726,-3511 7928,-3511 3239,0 5624,972 7155,2915 1531,1944 2296,4961 2296,9062l0 1362 -15944 0c317,5300 3172,7950 8568,7950 2282,0 4785,-545 7509,-1642l0 3364zm-15944 -12852l11263 0 0 -604c0,-4247 -1759,-6374 -5270,-6374 -1686,0 -3062,611 -4115,1840 -1053,1229 -1678,2944 -1877,5138z"/>
  <path id="_2" class="fil4" d="M310467 459933c-2576,2157 -5138,3239 -7700,3239 -2135,0 -3901,-611 -5285,-1833 -1391,-1215 -2083,-2760 -2083,-4623 0,-2429 1075,-4380 3231,-5859 2157,-1480 5006,-2216 8539,-2216l2628 0 0 -2017c0,-1656 -368,-2841 -1097,-3548 -736,-707 -1951,-1060 -3644,-1060 -2459,0 -4998,692 -7626,2068l0 -3636c3011,-1075 5837,-1612 8472,-1612 2974,0 5072,589 6294,1767 1230,1178 1841,3217 1841,6102l0 9820c0,1406 154,2370 456,2878 302,508 869,765 1700,765 272,0 721,-74 1340,-213l390 2532c-1421,456 -2495,685 -3224,685 -2091,0 -3504,-1082 -4233,-3239zm-670 -2746l0 -5896 -1266 0c-5808,0 -8715,1568 -8715,4711 0,1134 375,2046 1119,2739 743,685 1737,1030 2967,1030 1855,0 3820,-861 5896,-2583z"/>
  <polygon id="_3" class="fil4" points="333189,462775 333189,431902 324135,431902 324135,428722 337430,428722 337430,462775 "/>
  <path id="_4" class="fil4" d="M360601 462775l0 -20228 -8524 0 0 -3180 12765 0 0 23409 -4240 0zm-574 -28709l0 -5344 5344 0 0 5344 -5344 0z"/>
  <path id="_5" class="fil4" d="M400070 462745c-2128,376 -4181,559 -6161,559 -3459,0 -5822,-618 -7067,-1862 -1252,-1244 -1877,-3600 -1877,-7067l0 -11299 -5830 0 0 -3180 5830 0 0 -5035 4240 0 0 5035 10379 0 0 3180 -10379 0 0 11999c0,1340 81,2260 250,2760 162,508 523,942 1068,1318 979,648 2407,972 4277,972 1774,0 3526,-199 5270,-604l0 3224z"/>
  <path id="_6" class="fil4" d="M407297 471299l0 -3180 1730 0c1612,0 2782,-257 3519,-780 729,-515 1502,-1634 2304,-3342l1060 -2253 -9849 -22378 4394 0 7678 17461 7737 -17461 3820 0 -11815 26412c-920,2054 -2024,3489 -3305,4306 -1281,810 -3099,1215 -5462,1215l-1811 0z"/>
  <path id="_7" class="fil4" d="M463842 463040l0 -34318 4240 0 0 15031c2061,-3276 4615,-4917 7663,-4917 2665,0 4763,1023 6294,3070 1531,2054 2297,4844 2297,8377 0,3879 -906,7022 -2716,9422 -1819,2400 -4189,3600 -7126,3600 -2517,0 -4652,-1060 -6411,-3180l-1053 2915 -3187 0zm4240 -6110c1965,2128 3909,3195 5823,3195 1862,0 3313,-824 4343,-2473 1023,-1642 1539,-3946 1539,-6912 0,-5521 -1649,-8281 -4939,-8281 -2400,0 -4652,1494 -6765,4491l0 9981z"/>
  <path id="_8" class="fil4" d="M510775 439366l0 23409 -4240 0 0 -4409c-1958,3291 -4630,4939 -8009,4939 -4439,0 -6654,-2643 -6654,-7928l0 -16011 4240 0 0 14855c0,1840 280,3143 847,3909 559,773 1516,1156 2871,1156 2135,0 4372,-1546 6706,-4630l0 -15289 4240 0z"/>
  <path id="_9" class="fil4" d="M539776 462745c-2128,376 -4181,559 -6161,559 -3459,0 -5822,-618 -7067,-1862 -1252,-1244 -1877,-3600 -1877,-7067l0 -11299 -5830 0 0 -3180 5830 0 0 -5035 4240 0 0 5035 10379 0 0 3180 -10379 0 0 11999c0,1340 81,2260 250,2760 162,508 523,942 1068,1318 979,648 2407,972 4277,972 1774,0 3526,-199 5270,-604l0 3224z"/>
  <path id="_10" class="fil4" d="M622541 439366l0 23409 -4240 0 0 -4409c-1958,3291 -4630,4939 -8009,4939 -4439,0 -6654,-2643 -6654,-7928l0 -16011 4240 0 0 14855c0,1840 280,3143 847,3909 559,773 1516,1156 2871,1156 2135,0 4372,-1546 6706,-4630l0 -15289 4240 0z"/>
  <path id="_11" class="fil4" d="M632329 470607l456 -3578c2547,1082 4910,1619 7096,1619 4549,0 6824,-2164 6824,-6500l199 -4226c-1781,3232 -4365,4851 -7744,4851 -2672,0 -4792,-1016 -6367,-3048 -1575,-2031 -2363,-4777 -2363,-8222 0,-3747 913,-6794 2738,-9143 1826,-2348 4196,-3526 7119,-3526 2289,0 4534,1067 6750,3202l0 -2672 3975 0 0 18734c0,3033 -199,5315 -604,6839 -405,1531 -1156,2885 -2267,4063 -1767,1884 -4535,2827 -8304,2827 -2216,0 -4719,-405 -7508,-1222zm14443 -16136l0 -9216c-1906,-2157 -3879,-3239 -5919,-3239 -1848,0 -3290,802 -4328,2414 -1030,1612 -1546,3872 -1546,6780 0,2459 449,4387 1354,5771 906,1391 2164,2083 3791,2083 2510,0 4726,-1531 6647,-4594z"/>
  <path id="_12" class="fil4" d="M657709 462775l0 -23409 3710 0 0 4402c1826,-3290 3570,-4932 5219,-4932 2120,0 3474,1642 4078,4917l155 0c1494,-3276 3254,-4917 5263,-4917 1472,0 2532,537 3194,1605 663,1075 994,2805 994,5190l0 17144 -3710 0 0 -16938c0,-1273 -96,-2142 -280,-2598 -192,-464 -545,-692 -1068,-692 -1354,0 -2819,1715 -4394,5145l0 15083 -3710 0 0 -16194c0,-1612 -96,-2687 -280,-3224 -191,-537 -567,-809 -1126,-809 -611,0 -1325,493 -2157,1480 -832,979 -1561,2208 -2179,3673l0 15076 -3710 0z"/>
  <path id="_13" class="fil4" d="M707336 461847c-2944,972 -5646,1457 -8105,1457 -4019,0 -7118,-1038 -9275,-3106 -2164,-2069 -3246,-5028 -3246,-8878 0,-3637 1038,-6625 3114,-8973 2083,-2341 4726,-3511 7928,-3511 3239,0 5624,972 7155,2915 1531,1944 2296,4961 2296,9062l0 1362 -15944 0c317,5300 3172,7950 8568,7950 2282,0 4785,-545 7509,-1642l0 3364zm-15944 -12852l11263 0 0 -604c0,-4247 -1759,-6374 -5270,-6374 -1686,0 -3062,611 -4115,1840 -1053,1229 -1678,2944 -1877,5138z"/>
  <path id="_14" class="fil4" d="M715535 462775l0 -23409 4240 0 0 4387c1958,-3276 4623,-4917 7987,-4917 4454,0 6676,2635 6676,7913l0 16025 -4240 0 0 -14870c0,-1826 -287,-3128 -854,-3894 -567,-773 -1524,-1156 -2864,-1156 -2135,0 -4372,1539 -6706,4608l0 15311 -4240 0z"/>
  <path id="_15" class="fil4" d="M763307 462745c-2128,376 -4181,559 -6161,559 -3459,0 -5822,-618 -7067,-1862 -1252,-1244 -1877,-3600 -1877,-7067l0 -11299 -5830 0 0 -3180 5830 0 0 -5035 4240 0 0 5035 10379 0 0 3180 -10379 0 0 11999c0,1340 81,2260 250,2760 162,508 523,942 1068,1318 979,648 2407,972 4277,972 1774,0 3526,-199 5270,-604l0 3224z"/>
  <path id="_16" class="fil4" d="M791160 461847c-2944,972 -5646,1457 -8105,1457 -4019,0 -7118,-1038 -9275,-3106 -2164,-2069 -3246,-5028 -3246,-8878 0,-3637 1038,-6625 3114,-8973 2083,-2341 4726,-3511 7928,-3511 3239,0 5624,972 7155,2915 1531,1944 2296,4961 2296,9062l0 1362 -15944 0c317,5300 3172,7950 8568,7950 2282,0 4785,-545 7509,-1642l0 3364zm-15944 -12852l11263 0 0 -604c0,-4247 -1759,-6374 -5270,-6374 -1686,0 -3062,611 -4115,1840 -1053,1229 -1678,2944 -1877,5138z"/>
  <path id="_17" class="fil4" d="M814420 462775l0 -4402c-2069,3291 -4630,4932 -7685,4932 -2650,0 -4741,-1030 -6272,-3084 -1531,-2054 -2297,-4851 -2297,-8384 0,-3880 906,-7015 2717,-9407 1818,-2393 4189,-3593 7126,-3593 2517,0 4659,1067 6411,3195l0 -13309 4240 0 0 34053 -4240 0zm0 -17564c-1980,-2127 -3924,-3194 -5822,-3194 -1863,0 -3313,817 -4343,2458 -1023,1642 -1539,3953 -1539,6934 0,5514 1649,8274 4939,8274 2400,0 4652,-1502 6765,-4498l0 -9974z"/>
  <path id="_18" class="fil5" d="M572162 462775l10931 -27648 4240 0 10931 27648 -4513 0 -2620 -6934 -12646 0 -2665 6934 -3659 0zm7597 -10114l10107 0 -5072 -13206 -5035 13206z"/>
  <path class="fil1 str5" d="M508938 393918l0 -43465m-39157 -47251l0 41668 39157 0 39180 0 0 -41668"/>
  <path class="fil1 str5" d="M393861 344680l34732 191m28132 -41668l-28132 41668 24622 49084m-65045 -90752l0 90037"/>
  <polyline class="fil1 str5" points="371084,303311 292164,303311 292136,349125 371083,348500 371057,393515 292136,393284 "/>
 </g>
</svg>
